<svg xmlns="http://www.w3.org/2000/svg" viewBox="0 0 1200 360" role="img" aria-labelledby="title desc">
  <title id="title">AFRICOM Technologies</title>
  <desc id="desc">AFRICOM wordmark with Technologies subtitle and Since 2004 line.</desc>
  <rect width="1200" height="360" fill="#ffffff"/>
  <g transform="translate(72 42)">
    <text x="360" y="128" fill="#184ab4" font-family="Arial, Helvetica, sans-serif" font-size="122" font-weight="800" letter-spacing="3">AFRICOM</text>
    <circle cx="873" cy="78" r="52" fill="#184ab4"/>
    <path d="M847 67c11-16 31-27 53-27 0 0 0 0 0 0 5 0 10 1 15 2-10 5-17 16-17 29 0 13 7 24 17 29-4 1-9 2-14 2-22 0-42-11-54-28z" fill="#ffffff" opacity="0.96"/>
    <path d="M892 46c5 4 8 10 8 17 0 7-3 13-8 17-5-4-8-10-8-17 0-7 3-13 8-17z" fill="#ffffff" opacity="0.9"/>
    <path d="M838 94c13 12 31 20 50 20 19 0 36-7 49-19" fill="none" stroke="#ffffff" stroke-width="9" stroke-linecap="round" opacity="0.9"/>
    <path d="M369 170h352" stroke="#2fb36d" stroke-width="6" stroke-linecap="round"/>
    <path d="M751 170h94" stroke="#2fb36d" stroke-width="6" stroke-linecap="round"/>
    <text x="450" y="182" fill="#24508f" font-family="Arial, Helvetica, sans-serif" font-size="36" font-weight="700" letter-spacing="2">SINCE 2004</text>
    <text x="690" y="220" fill="#28a745" font-family="Brush Script MT, Segoe Script, Comic Sans MS, cursive" font-size="84" font-style="italic" font-weight="600">Technologies</text>
  </g>
</svg>